<svg width="135" height="36" viewBox="0 0 135 36" fill="none" xmlns="http://www.w3.org/2000/svg">
<path d="M23.7039 30.7483H5.41509C4.71119 30.7483 4.05757 30.6101 3.45422 30.3335C2.87602 30.0319 2.3858 29.6422 1.98358 29.1646C1.60649 28.6618 1.32995 28.0961 1.15398 27.4676C0.978003 26.814 0.952864 26.1478 1.07856 25.4691L5.30196 4.35205H13.2208L9.44995 23.282L5.19028 24.4654H20.0476C20.2487 24.4654 20.2753 24.4654 20.4233 24.4132C20.5992 24.2624 20.7124 24.0864 20.7626 23.8853L24.6844 4.35205H32.6033L28.0405 27.2037C27.8394 28.2595 27.324 29.1143 26.4944 29.7679C25.6899 30.4215 24.7598 30.7483 23.7039 30.7483Z" fill="#4F46E5"/>
<path d="M18.3615 19.2769C13.7633 21.4319 11.8077 21.9723 10.0297 24.3369L11.3629 24.3369L12.2516 24.3369L12.6959 24.3369C14.5956 23.0047 23.3063 21.9454 28.0406 18.3335C31.8053 15.4614 31.3635 9.74439 30.9566 6.70951C29.3385 11.7892 21.0632 18.0107 18.3615 19.2769Z" fill="white"/>
<path d="M16.9901 16.0779C12.3964 18.9962 9.9188 21.7139 8.35156 24.4701H9.01813H10.1291L11.2616 23.4277C13.099 21.7524 22.6105 18.2396 27.1501 13.7541C30.7599 10.1873 29.51 4.1705 28.6633 1C27.6365 6.62044 19.6891 14.3632 16.9901 16.0779Z" fill="#F42D2D"/>
<path d="M47.2606 24.0362C45.7907 24.0362 44.6433 23.5787 43.8184 22.6638C43.0085 21.7339 42.6035 20.489 42.6035 18.9292V11.4824H45.9782V18.6592C45.9782 19.3641 46.1807 19.9341 46.5856 20.369C47.0056 20.789 47.553 20.999 48.228 20.999C48.9029 20.999 49.4429 20.789 49.8478 20.369C50.2678 19.9341 50.4778 19.3641 50.4778 18.6592V11.4824H53.8524V23.7662H50.7027V22.2814C50.3878 22.8663 49.9303 23.3088 49.3304 23.6087C48.7454 23.8937 48.0555 24.0362 47.2606 24.0362Z" fill="#27272A"/>
<path d="M60.5261 24.0137C59.2362 24.0137 58.1038 23.7212 57.1289 23.1363C56.169 22.5363 55.5015 21.7189 55.1266 20.684L57.5563 19.4241C57.8863 20.0541 58.3138 20.549 58.8387 20.909C59.3637 21.2539 59.9486 21.4264 60.5935 21.4264C61.0885 21.4264 61.471 21.3289 61.7409 21.134C62.0109 20.939 62.1459 20.669 62.1459 20.324C62.1459 20.0541 62.0409 19.8216 61.8309 19.6266C61.6209 19.4316 61.306 19.2966 60.886 19.2216L58.7937 18.8167C57.7738 18.5767 56.9714 18.1267 56.3864 17.4668C55.8165 16.7919 55.5315 15.9969 55.5315 15.082C55.5315 14.3171 55.7265 13.6422 56.1165 13.0572C56.5214 12.4723 57.0839 12.0223 57.8038 11.7074C58.5387 11.3774 59.3787 11.2124 60.3236 11.2124C61.4635 11.2124 62.4684 11.4824 63.3383 12.0223C64.2082 12.5473 64.8456 13.2897 65.2506 14.2496L62.7983 15.5095C62.6034 15.0295 62.2734 14.6471 61.8084 14.3621C61.3435 14.0621 60.826 13.9121 60.2561 13.9121C59.7911 13.9121 59.4312 14.0021 59.1762 14.1821C58.9212 14.3621 58.7937 14.6096 58.7937 14.9246C58.7937 15.1795 58.8987 15.4045 59.1087 15.5995C59.3337 15.7795 59.6861 15.9295 60.1661 16.0494L62.1234 16.4544C63.1733 16.7394 63.9832 17.2043 64.5532 17.8493C65.1231 18.4792 65.4081 19.2441 65.4081 20.1441C65.4081 20.909 65.2056 21.5839 64.8006 22.1689C64.3957 22.7538 63.8257 23.2113 63.0908 23.5412C62.3559 23.8562 61.501 24.0137 60.5261 24.0137Z" fill="#27272A"/>
<path d="M72.6895 24.0362C71.4296 24.0362 70.3122 23.7512 69.3373 23.1813C68.3624 22.6113 67.605 21.8389 67.065 20.864C66.5401 19.8741 66.2776 18.7867 66.2776 17.6018C66.2776 16.4019 66.5476 15.3145 67.0875 14.3396C67.6275 13.3647 68.3699 12.5998 69.3148 12.0448C70.2597 11.4899 71.3096 11.2124 72.4645 11.2124C73.7244 11.2124 74.8118 11.4749 75.7267 11.9998C76.6416 12.5248 77.339 13.2522 77.819 14.1821C78.299 15.097 78.5389 16.1244 78.5389 17.2643C78.5389 17.8193 78.4864 18.2542 78.3814 18.5692H69.7873C69.8923 19.3491 70.1997 19.9716 70.7097 20.4365C71.2346 20.8865 71.9096 21.1115 72.7345 21.1115C73.3194 21.1115 73.8294 20.9915 74.2643 20.7515C74.6993 20.5115 75.0368 20.1816 75.2767 19.7616L77.9765 21.044C77.6015 21.9439 76.9341 22.6713 75.9742 23.2263C75.0293 23.7662 73.9344 24.0362 72.6895 24.0362ZM74.9618 16.0944C74.8868 15.4345 74.6243 14.9096 74.1743 14.5196C73.7244 14.1146 73.1544 13.9121 72.4645 13.9121C71.7896 13.9121 71.2196 14.0996 70.7547 14.4746C70.3047 14.8496 70.0047 15.3895 69.8548 16.0944H74.9618Z" fill="#27272A"/>
<path d="M79.9637 11.4824H83.1134V13.3272C83.4133 12.6073 83.8408 12.0973 84.3958 11.7973C84.9507 11.4974 85.6331 11.3474 86.4431 11.3474H87.163V14.2721H86.1056C85.2657 14.2721 84.5907 14.5271 84.0808 15.037C83.5858 15.547 83.3384 16.2519 83.3384 17.1518V23.7662H79.9637V11.4824Z" fill="#27272A"/>
<path d="M94.109 24.0362C92.8941 24.0362 91.7843 23.7587 90.7793 23.2038C89.7894 22.6338 89.0095 21.8614 88.4396 20.8865C87.8696 19.8966 87.5847 18.8017 87.5847 17.6018C87.5847 16.4019 87.8696 15.3145 88.4396 14.3396C89.0095 13.3647 89.7894 12.5998 90.7793 12.0448C91.7843 11.4899 92.8941 11.2124 94.109 11.2124C95.4889 11.2124 96.6963 11.5574 97.7312 12.2473C98.7811 12.9372 99.4935 13.8522 99.8685 14.992L96.9438 16.2519C96.7338 15.637 96.3738 15.1495 95.8639 14.7896C95.3539 14.4296 94.769 14.2496 94.109 14.2496C93.2241 14.2496 92.4967 14.5646 91.9267 15.1945C91.3568 15.8245 91.0718 16.6344 91.0718 17.6243C91.0718 18.6142 91.3568 19.4241 91.9267 20.0541C92.4967 20.684 93.2241 20.999 94.109 20.999C94.784 20.999 95.3689 20.819 95.8639 20.459C96.3738 20.0991 96.7338 19.6116 96.9438 18.9967L99.8685 20.279C99.5085 21.3889 98.8036 22.2963 97.7537 23.0013C96.7038 23.6912 95.4889 24.0362 94.109 24.0362Z" fill="#27272A"/>
<path d="M105.073 24.0362C103.738 24.0362 102.688 23.7212 101.923 23.0913C101.158 22.4613 100.776 21.5914 100.776 20.4815C100.776 19.4316 101.136 18.5767 101.856 17.9168C102.591 17.2418 103.686 16.7844 105.14 16.5444L108.538 16.0044V15.667C108.538 15.202 108.35 14.8121 107.975 14.4971C107.6 14.1821 107.105 14.0246 106.49 14.0246C105.89 14.0246 105.358 14.1896 104.893 14.5196C104.443 14.8346 104.113 15.2695 103.903 15.8245L101.203 14.5421C101.563 13.5222 102.231 12.7123 103.206 12.1123C104.195 11.5124 105.343 11.2124 106.648 11.2124C107.668 11.2124 108.575 11.3999 109.37 11.7748C110.18 12.1498 110.802 12.6748 111.237 13.3497C111.687 14.0246 111.912 14.7971 111.912 15.667V23.7662H108.763V22.6188C108.283 23.0988 107.743 23.4587 107.143 23.6987C106.543 23.9237 105.853 24.0362 105.073 24.0362ZM104.263 20.369C104.263 20.744 104.398 21.0365 104.668 21.2464C104.953 21.4564 105.313 21.5614 105.748 21.5614C106.573 21.5614 107.24 21.3064 107.75 20.7965C108.275 20.2715 108.538 19.6266 108.538 18.8617V18.4792L105.748 18.9742C105.253 19.0642 104.878 19.2216 104.623 19.4466C104.383 19.6716 104.263 19.9791 104.263 20.369Z" fill="#27272A"/>
<path d="M113.825 11.4824H116.974V13.3272C117.274 12.6073 117.702 12.0973 118.257 11.7973C118.812 11.4974 119.494 11.3474 120.304 11.3474H121.024V14.2721H119.967C119.127 14.2721 118.452 14.5271 117.942 15.037C117.447 15.547 117.199 16.2519 117.199 17.1518V23.7662H113.825V11.4824Z" fill="#27272A"/>
<path d="M127.858 24.0362C126.598 24.0362 125.48 23.7512 124.505 23.1813C123.53 22.6113 122.773 21.8389 122.233 20.864C121.708 19.8741 121.446 18.7867 121.446 17.6018C121.446 16.4019 121.716 15.3145 122.256 14.3396C122.796 13.3647 123.538 12.5998 124.483 12.0448C125.428 11.4899 126.478 11.2124 127.633 11.2124C128.892 11.2124 129.98 11.4749 130.895 11.9998C131.81 12.5248 132.507 13.2522 132.987 14.1821C133.467 15.097 133.707 16.1244 133.707 17.2643C133.707 17.8193 133.655 18.2542 133.55 18.5692H124.955C125.06 19.3491 125.368 19.9716 125.878 20.4365C126.403 20.8865 127.078 21.1115 127.903 21.1115C128.488 21.1115 128.997 20.9915 129.432 20.7515C129.867 20.5115 130.205 20.1816 130.445 19.7616L133.145 21.044C132.77 21.9439 132.102 22.6713 131.142 23.2263C130.197 23.7662 129.102 24.0362 127.858 24.0362ZM130.13 16.0944C130.055 15.4345 129.792 14.9096 129.342 14.5196C128.892 14.1146 128.323 13.9121 127.633 13.9121C126.958 13.9121 126.388 14.0996 125.923 14.4746C125.473 14.8496 125.173 15.3895 125.023 16.0944H130.13Z" fill="#27272A"/>
</svg>
