<svg width="38" height="34" viewBox="0 0 38 34" fill="none" xmlns="http://www.w3.org/2000/svg">
<path d="M25.7039 29.7483H7.41509C6.71119 29.7483 6.05757 29.6101 5.45422 29.3335C4.87602 29.0319 4.3858 28.6422 3.98358 28.1646C3.60649 27.6618 3.32995 27.0961 3.15398 26.4676C2.978 25.814 2.95286 25.1478 3.07856 24.4691L7.30196 3.35205H15.2208L11.45 22.282L7.19028 23.4654H22.0476C22.2487 23.4654 22.2753 23.4654 22.4233 23.4132C22.5992 23.2624 22.7124 23.0864 22.7626 22.8853L26.6844 3.35205H34.6033L30.0405 26.2037C29.8394 27.2595 29.324 28.1143 28.4944 28.7679C27.6899 29.4215 26.7598 29.7483 25.7039 29.7483Z" fill="#4F46E5"/>
<path d="M16.3615 18.2769C11.7633 20.4319 9.80772 20.9723 8.02975 23.3369L9.36289 23.3369L10.2516 23.3369L10.6959 23.3369C12.5956 22.0047 21.3063 20.9454 26.0406 17.3335C29.8053 14.4614 29.3635 8.74439 28.9566 5.70951C27.3385 10.7892 19.0632 17.0107 16.3615 18.2769Z" fill="white"/>
<path d="M14.9901 15.0779C10.3964 17.9962 7.9188 20.7139 6.35156 23.4701H7.01813H8.12909L9.26155 22.4277C11.099 20.7524 20.6105 17.2396 25.1501 12.7541C28.7599 9.18726 27.51 3.1705 26.6633 0C25.6365 5.62044 17.6891 13.3632 14.9901 15.0779Z" fill="#F42D2D"/>
</svg>
